<svg xmlns="http://www.w3.org/2000/svg" xmlns:xlink="http://www.w3.org/1999/xlink" viewBox="0,0,256,256" width="96px" height="96px" fill-rule="nonzero"><defs><linearGradient x1="32.807" y1="-4.251" x2="32.807" y2="84.729" gradientUnits="userSpaceOnUse" id="color-1"><stop offset="0" stop-color="#000000" stop-opacity="0.1098"></stop><stop offset="0.337" stop-color="#010106" stop-opacity="0.74902"></stop><stop offset="0.685" stop-color="#000000"></stop></linearGradient><linearGradient x1="27.5" y1="29.424" x2="27.5" y2="41.587" gradientUnits="userSpaceOnUse" id="color-2"><stop offset="0" stop-color="#000000" stop-opacity="0.1098"></stop><stop offset="0.337" stop-color="#010106" stop-opacity="0.74902"></stop><stop offset="0.685" stop-color="#000000"></stop></linearGradient><linearGradient x1="36" y1="29.424" x2="36" y2="41.587" gradientUnits="userSpaceOnUse" id="color-3"><stop offset="0" stop-color="#000000" stop-opacity="0.1098"></stop><stop offset="0.337" stop-color="#010106" stop-opacity="0.74902"></stop><stop offset="0.685" stop-color="#000000"></stop></linearGradient><linearGradient x1="36.758" y1="36.015" x2="37.418" y2="36.015" gradientUnits="userSpaceOnUse" id="color-4"><stop offset="0" stop-color="#000000" stop-opacity="0.1098"></stop><stop offset="0.337" stop-color="#010106" stop-opacity="0.74902"></stop><stop offset="0.685" stop-color="#000000"></stop></linearGradient><linearGradient x1="32" y1="7" x2="32" y2="57" gradientUnits="userSpaceOnUse" id="color-5"><stop offset="0" stop-color="#000000"></stop><stop offset="0.695" stop-color="#000000"></stop></linearGradient></defs><g fill="none" fill-rule="nonzero" stroke="none" stroke-width="1" stroke-linecap="butt" stroke-linejoin="miter" stroke-miterlimit="10" stroke-dasharray="" stroke-dashoffset="0" font-family="none" font-weight="none" font-size="none" text-anchor="none" style="mix-blend-mode: normal"><g transform="scale(4,4)"><path d="M53.52,35.12c0.86,-2.21 1,-3.51 1,-6c0,-15 -10.07,-21 -22.5,-21c-21.5,0 -22.5,9.39 -22.5,21c0,2.93 -0.16,3.45 1,6c-1.06,0.45 -2,4 -1,5c1.17,1.17 1.34,3 3,3c0.78,0 1.49,-0.3 2.02,-0.8c1.29,1.5 2.8,2.82 4.48,3.94c1.02,0.68 2.11,1.28 3.25,1.79l-0.13,0.19l2.26,3.5l1.01,-2.49l2.36,5.12l1.03,-4.04l2.22,3.41l1.19,-2.49l1.19,2.62l1.92,-3.99l0.21,-0.44l0.14,0.39l0.6,1.79l3.25,-2.5c5.33,-1.23 7.8,-3.82 10.88,-7.88c0.54,0.53 1.29,0.88 2.12,0.88c1.66,0 4,-0.35 4,-2c0,-1.43 -1.67,-4.7 -3,-5zM38.13,39.38c-1.04,0.08 -2.37,0.2 -2.37,0.2c-0.83,0 -1.4,0.67 -1.43,1.45c-0.07,2.34 0.19,3.97 -1.31,3.97c-0.55,0 -0.99,-0.25 -1.34,-0.65c-0.37,0.4 -0.4,0.65 -1.16,0.65c-1,0 -1.92,-2.02 -1.92,-4.61c0,-0.64 -0.51,-1.19 -1.18,-1.21c-2.67,-0.09 -5.9,0 -5.9,-3.4c0,-1.62 0,-4.78 5.9,-4.78c2.06,0 2.46,2.07 3.41,3.47c0.29,0.43 0.97,0.34 1.13,-0.14c0.14,-0.41 0.56,-1.12 0.94,-1.69c0.47,-0.73 1.28,-1.23 2.19,-1.31c0.27,-0.03 0.57,-0.05 0.93,-0.05c5.08,0 5.5,2.22 5.5,4.5c0,2.47 -0.37,3.34 -3.39,3.6z" fill="url(#color-1)"></path><path d="M30,35.987l-0.671,0.121c0,0 -0.442,0.891 -1.829,0.891c-1.874,-0.427 -1.483,-1.75 -1.537,-2.204l-0.963,-0.322c0,0 2.03,-0.903 3.716,-0.213c0.374,0.153 0.751,0.768 0.936,1.107c0.119,0.218 0.215,0.43 0.348,0.62z" fill="url(#color-2)"></path><path d="M38,34.3l-0.515,0.431v0.394c-0.076,0.487 0,1.875 -1.688,1.875c-0.844,0 -1.266,-1.294 -1.266,-1.294l-0.531,-0.112c0.768,-1.556 2.051,-1.669 2.827,-1.566h0.017l0.557,0.131l0.067,0.019z" fill="url(#color-3)"></path><path d="M37.418,36.085l-0.66,-0.14c0.3,0.04 0.54,0.1 0.66,0.14z" fill="url(#color-4)"></path><path d="M55.259,34.326c0.703,-2.24 0.703,-2.994 0.703,-5.224c0,-14.045 -8.732,-22.102 -23.944,-22.102c-22.181,0 -23.944,9.584 -23.944,22.102v0.944c-0.02,1.939 -0.031,3.355 0.56,5.103c-1.019,0.161 -2.455,1.437 -2.598,2.994c-0.163,1.738 0.224,3.114 1.019,4.018c1.019,1.437 3.057,2.009 5.094,2.009c0.672,0 1.325,-0.161 1.905,-0.462c1.243,1.296 2.629,2.461 4.147,3.446c0.897,0.583 1.834,1.115 2.822,1.587l3.434,5.254l0.886,-2.14l2.406,5.145l0.886,-2.16c0.255,-0.623 0.469,-1.216 0.632,-1.778l1.559,2.351l0.886,-0.864c0.194,-0.181 0.387,-0.392 0.571,-0.633l1.294,2.793l1.905,-4.4l0.652,1.919l1.182,-2.17c0.448,-0.834 1.192,-1.507 2.119,-1.909c0.122,0.151 0.245,0.352 0.346,0.532l0.662,1.175l2.068,-2.049c1.1,-1.085 2.18,-1.919 3.291,-2.562c2.262,-1.306 3.699,-2.733 5.349,-4.802c1.365,0.512 3.393,0.723 3.79,0.723l0.173,-0.01c1.001,-0.17 2.886,-1.014 2.886,-3.003c0,-3.276 -0.917,-5.235 -2.741,-5.827zM55.488,39.115c-0.09,-0.02 -0.48,-0.09 -2.22,-0.38c-1.31,-0.21 -1.35,0.96 -1.15,1.99c-0.42,-0.11 -0.76,-0.22 -0.89,-0.32l-0.81,-0.81l-0.7,0.92c-1.73,2.27 -3,3.66 -5.18,4.93c-1.24,0.73 -2.43,1.66 -3.63,2.87l-0.25,0.24c-0.5,-0.56 -1.01,-0.74 -1.54,-0.56c-0.96,0.32 -1.82,0.83 -2.51,1.5l-0.95,-2.64l-1.03,2.16l-1.14,2.62l-1.87,-4.08l-0.4,3.58c-0.04,0.31 -0.1,0.57 -0.18,0.8l-3.08,-4.72l-0.16,3.07c-0.02,0.41 -0.08,0.86 -0.19,1.34l-2.26,-4.9l-1.15,2.85l-0.86,-1.32l0.43,-0.64l-1.09,-0.48c-1.09,-0.49 -2.14,-1.07 -3.11,-1.72c-1.59,-1.05 -3.03,-2.31 -4.27,-3.74l-0.68,-0.79l-0.76,0.71c-0.36,0.33 -0.84,0.52 -1.34,0.52c-0.15,0 -0.32,-0.04 -0.49,-0.1c0.31,-0.86 0.47,-1.9 -0.63,-1.9c-0.67,0 -1.14,0.03 -1.48,0.07c-0.05,-0.08 -0.1,-0.17 -0.15,-0.25l0.75,-0.82h-1c0,-0.79 0.65,-1.76 1.4,-2.08l0.93,-0.41l-0.42,-0.93c-0.94,-2.05 -0.93,-3.32 -0.91,-5.63v-0.95c0,-10.29 0,-20 21.5,-20c13.66,0 21.5,7.29 21.5,20c0,2.46 0,2.84 -0.95,5.68l-0.44,1.32h0.89l-0.5,1l2.97,1.98c0,0 0,0.01 0,0.02z" fill="url(#color-5)"></path></g></g></svg>