<svg xmlns="http://www.w3.org/2000/svg" xmlns:xlink="http://www.w3.org/1999/xlink" xmlns:krita="http://krita.org/namespaces/svg/krita" xmlns:sodipodi="http://sodipodi.sourceforge.net/DTD/sodipodi-0.dtd" width="23.04ptpx" height="23.04ptpx" viewBox="0 0 23.04 23.04" transform="rotate(0) scale(1, 1)">
<defs/>
<g id="#000000ff" transform="matrix(0.0627844157528305 0 0 0.066891656574904 0.284491802488188 0.120852846107836)" fill="none">
  <path id="shape0" transform="translate(760.458945225142, 0.704017295868493)" fill="#000000" stroke-opacity="0" stroke="#000000" stroke-width="0" stroke-linecap="square" stroke-linejoin="bevel" d="M45.9511 0.855983C62.8111 -1.37402 81.2611 0.395983 95.5111 10.436C107.011 18.346 113.991 31.646 115.771 45.316C117.961 61.506 115.111 79.276 104.361 92.086C94.9311 103.606 80.1011 109.386 65.5411 110.466C49.4211 111.816 32.0011 109.136 19.0311 98.846C8.36105 90.596 2.16105 77.616 0.581055 64.396C-1.36895 48.776 1.42105 31.786 11.5111 19.276C19.8611 8.72598 32.8111 2.68598 45.9511 0.855983M49.0111 24.886C41.8111 26.436 35.2811 31.046 31.7111 37.536C27.6011 45.026 26.8511 54.006 28.1211 62.356C29.2211 70.096 33.1611 77.756 39.8911 82.046C47.4311 86.936 56.9511 87.616 65.6411 86.236C74.2411 84.856 82.2411 79.286 85.6911 71.156C89.4111 62.436 89.6911 52.376 87.0811 43.306C85.0311 36.116 79.8511 29.836 72.9911 26.786C65.5011 23.516 56.9311 23.096 49.0111 24.886Z" sodipodi:nodetypes="cccccccccccccccccc"/>
  <path id="shape1" transform="translate(1099.66, 0.688702427063417)" fill="#000000" stroke-opacity="0" stroke="#000000" stroke-width="0" stroke-linecap="square" stroke-linejoin="bevel" d="M9.78 12.6913C17.38 4.7213 28.61 1.6913 39.24 0.551298C53.78 -0.908702 69.58 0.131298 82.01 8.5913C91.29 14.6313 96.97 25.3113 97.45 36.3013C88.66 36.3313 79.87 36.2913 71.08 36.3213C70 32.0913 67.42 28.1313 63.34 26.2913C55.32 22.5013 45.91 22.7413 37.42 24.6513C33.02 25.8013 27.67 28.2913 27.09 33.3813C27.02 38.6313 32.57 41.0413 36.91 41.9713C45.98 43.8913 55.29 44.2813 64.47 45.5313C73.13 46.2713 82.29 47.8113 89.19 53.5113C96.32 59.1013 99.27 68.5513 98.89 77.3513C99.16 87.3013 93.7 96.9413 85.37 102.271C73.92 109.721 59.74 111.141 46.39 110.741C34.2 110.191 21.07 108.291 11.39 100.221C3.67 93.9013 0.27 83.7813 0 74.0713C8.62 74.0813 17.24 74.0013 25.87 74.1113C26.6 78.1913 28.83 82.1313 32.65 84.0313C39.93 87.7613 48.42 87.4313 56.38 87.2313C61.75 86.7613 67.82 85.8013 71.55 81.4913C74.24 78.5713 73.19 73.6313 70.01 71.5213C64.28 67.4813 56.89 68.0013 50.26 67.0313C38.75 65.5313 26.66 65.6913 15.91 60.7313C9.17 57.7113 3.83 51.5913 2.33 44.2913C0.03 33.4413 1.8 20.9013 9.78 12.6913Z" sodipodi:nodetypes="ccccccccccccccccccccccccc"/>
  <path id="shape2" transform="translate(431.63, 3.43)" fill="#000000" stroke-opacity="0" stroke="#000000" stroke-width="0" stroke-linecap="square" stroke-linejoin="bevel" d="M40.51 0C51.9 0.16 63.29 0.01 74.67 0.08C88.35 35.14 101.96 70.23 115.59 105.31C105.95 105.33 96.31 105.31 86.67 105.32C84.36 98.84 82.07 92.35 79.83 85.84C64.87 85.83 49.91 85.77 34.94 85.87C32.69 92.37 30.32 98.82 28.05 105.32C18.7 105.32 9.35 105.31 0 105.32C13.51 70.22 26.83 35.04 40.51 0M43.15 63.05C52.69 63.09 62.23 63.06 71.77 63.07C67.09 49.57 62.32 36.11 57.58 22.63C52.74 36.1 47.93 49.57 43.15 63.05Z" sodipodi:nodetypes="ccccccccccccc"/>
  <path id="shape3" transform="translate(1211.9794772452, 3.46)" fill="#000000" stroke-opacity="0" stroke="#000000" stroke-width="0" stroke-linecap="square" stroke-linejoin="bevel" d="M0.0605228 0.01C9.03052 0.05 18.0005 0.06 26.9705 0.01C27.1105 14.15 26.9405 28.29 27.0505 42.43C39.6005 28.67 51.8705 14.65 64.3905 0.86C65.2405 -0.34 66.7805 0.12 68.0505 0C77.7905 0.1 87.5305 -0.02 97.2805 0.07C81.1905 18.01 64.6805 35.57 48.4805 53.4C64.6605 70.77 81.0805 87.91 97.2305 105.31C85.8705 105.2 74.5005 105.43 63.1505 105.2C50.8305 92.34 39.0605 78.82 27.0105 65.65C27.0205 78.87 27.0305 92.08 27.0005 105.3C18.0905 105.28 9.18052 105.3 0.280523 105.29C-0.119477 70.2 0.0105228 35.1 0.0605228 0.01Z" sodipodi:nodetypes="ccccccccccccc"/>
  <path id="shape4" transform="translate(550.239696454, 3.46)" fill="#000000" stroke-opacity="0" stroke="#000000" stroke-width="0" stroke-linecap="square" stroke-linejoin="bevel" d="M0.0203035 67.6C0.0403035 45.07 -0.0696965 22.53 0.0803035 0C9.0503 0.09 18.0303 0.01 27.0103 0.05C27.0303 21.21 26.9903 42.38 27.0203 63.54C27.0303 68.59 27.9203 73.98 31.4603 77.83C35.8603 82.5 42.6003 84 48.8003 84.07C55.0203 84.22 61.7803 83.52 66.8203 79.49C70.9103 76.17 72.5603 70.72 72.5203 65.6C72.5003 43.75 72.5003 21.9 72.5103 0.05C81.5203 0.06 90.5303 -0.02 99.5403 0.08C99.4603 23.56 99.5403 47.04 99.5003 70.51C99.2903 80.27 95.1203 90.01 87.5603 96.3C77.1803 105.16 63.0303 107.93 49.7403 108.06C35.6003 107.86 20.3603 104.6 10.0003 94.31C2.9203 87.39 -0.0696965 77.31 0.0203035 67.6Z" sodipodi:nodetypes="ccccccccccccccc"/>
  <path id="shape5" transform="translate(661.73, 3.4975)" fill="#000000" stroke-opacity="0" stroke="#000000" stroke-width="0" stroke-linecap="square" stroke-linejoin="bevel" d="M0.02 0.0125C31.6 -0.0075 63.18 0.0025 94.77 0.0025C94.77 7.6725 94.77 15.3325 94.77 23.0025C83.51 23.0425 72.26 22.9425 61 23.0525C61.04 50.4525 61.01 77.8525 61.02 105.242C52.04 105.282 43.07 105.203 34.1 105.293C33.92 77.8725 34.06 50.4425 34.03 23.0225C22.69 22.9525 11.34 23.0725 0 22.9625C0.04 15.3125 0 7.6625 0.02 0.0125Z" sodipodi:nodetypes="ccccccccc"/>
  <path id="shape6" transform="translate(891.224075066116, 3.4)" fill="#000000" stroke-opacity="0" stroke="#000000" stroke-width="0" stroke-linecap="square" stroke-linejoin="bevel" d="M0.0259249 105.35C0.115925 70.23 -0.164075 35.11 0.165925 0C16.0159 0.22 31.8659 0.05 47.7259 0.09C59.1659 0.3 71.3759 0.75 81.4059 6.94C88.0659 10.88 92.3359 17.87 94.4159 25.18C97.5759 36.01 97.3659 47.42 97.2659 58.59C96.8559 68.6 95.9259 78.99 91.2259 88.01C87.7659 94.73 81.4859 99.78 74.3359 102.11C63.2359 106 51.3259 105.34 39.7659 105.35C26.5159 105.35 13.2759 105.35 0.0259249 105.35M26.9559 23.22C27.1159 43 26.9859 62.79 27.0159 82.58C35.2959 82.48 43.6059 82.92 51.8759 82.28C56.8959 82 61.9959 79.82 64.9359 75.61C68.5259 70.39 69.2759 63.87 69.6859 57.71C69.8759 51.3 69.9559 44.85 68.9859 38.5C68.2359 34.02 66.8459 29.12 62.9759 26.33C58.8559 23.44 53.6059 23.27 48.7559 23.11C41.4859 23.15 34.2159 22.98 26.9559 23.22Z" sodipodi:nodetypes="ccccccccccccccccccc"/>
  <path id="shape7" transform="translate(1003.23, 3.49274877775207)" fill="#000000" stroke-opacity="0" stroke="#000000" stroke-width="0" stroke-linecap="square" stroke-linejoin="bevel" d="M0 0.0472512C28.25 -0.0427488 56.51 0.0272512 84.77 0.00725122C84.73 7.69725 84.85 15.3773 84.7 23.0573C65.46 22.9773 46.23 22.9873 27 23.0473C27.04 28.8573 27.02 34.6773 27.01 40.4873C42.52 40.5473 58.02 40.4673 73.53 40.5273C73.5 48.1873 73.51 55.8373 73.53 63.4973C58.02 63.5373 42.51 63.4773 27.01 63.5273C27.03 69.8473 27.02 76.1673 27.01 82.4973C46.26 82.5273 65.52 82.4973 84.77 82.5073C84.76 90.0973 84.78 97.6773 84.75 105.267C56.51 105.247 28.27 105.267 0.02 105.257C0 70.1873 0.06 35.1173 0 0.0472512Z" sodipodi:nodetypes="ccccccccccccc"/>
  <path id="shape8" transform="translate(436.7475, 160.98399431991)" fill="#000000" stroke-opacity="0" stroke="#000000" stroke-width="0" stroke-linecap="square" stroke-linejoin="bevel" d="M0.0025 0.0160057C8.2425 0.0660057 16.4925 -0.103994 24.7325 0.116006C33.0325 24.566 41.5225 48.956 50.0525 73.326C54.9725 61.436 58.7725 49.086 63.2725 37.026C67.6325 24.686 72.0625 12.366 76.3925 0.0160057C84.1925 0.0460057 91.9925 -0.0439943 99.7825 0.0660057C99.6825 35.146 99.8425 70.216 99.7025 105.286C93.6325 105.236 87.5625 105.316 81.4825 105.226C81.4225 80.386 81.7025 55.546 81.3425 30.726C79.6025 33.446 78.9025 36.646 77.7525 39.636C71.6525 56.506 65.8325 73.486 59.6025 90.306C52.8825 90.206 46.1625 90.326 39.4525 90.226C32.2125 69.346 24.6425 48.576 17.4325 27.686C17.0025 53.536 17.3825 79.406 17.2425 105.266C11.5025 105.266 5.7525 105.276 0.0125 105.256C-0.0075 70.176 0.0025 35.096 0.0025 0.0160057Z" sodipodi:nodetypes="cccccccccccccccc"/>
  <path id="shape9" transform="translate(552.421447840502, 184.201670764267)" fill="#000000" stroke-opacity="0" stroke="#000000" stroke-width="0" stroke-linecap="square" stroke-linejoin="bevel" d="M4.64855 8.48833C15.8186 1.52833 29.4286 -1.12167 42.4486 0.428329C49.0986 1.28833 55.8986 3.84833 60.3986 9.02833C64.8986 14.1483 66.6786 21.1483 66.5886 27.8583C66.5586 45.9183 66.5886 63.9783 66.5786 82.0483C61.6386 82.0483 56.6986 82.0683 51.7686 82.0283C51.3086 79.5883 50.8586 77.1583 50.4486 74.7183C44.5286 80.2883 36.6886 83.8483 28.5186 84.0483C19.0786 84.5683 8.76855 81.0983 3.40855 72.9283C-0.421448 67.3683 -0.151448 60.3383 0.168552 53.9083C0.688552 46.1483 6.32855 39.5583 13.3186 36.5683C24.1386 31.6383 36.2786 32.9883 47.8186 32.7883C47.8086 27.6483 48.6286 21.5783 44.5786 17.6183C40.6486 13.7883 34.7186 14.1183 29.6486 14.3783C22.8986 14.9183 16.4386 17.2483 10.4586 20.3183C8.51855 16.3783 6.68855 12.3783 4.64855 8.48833M23.9386 47.1383C18.3286 50.1583 18.1886 57.3783 19.1586 62.8783C19.8686 66.8683 23.7286 69.3883 27.5386 69.8483C34.1086 70.7383 41.0886 68.6783 46.0386 64.2183C46.9886 63.3683 48.0986 62.3783 47.8286 60.9283C47.8786 55.5483 47.7986 50.1783 47.8286 44.7983C39.8886 45.2583 31.2986 43.3583 23.9386 47.1383Z" sodipodi:nodetypes="ccccccccccccccccccccccc"/>
  <path id="shape10" transform="translate(706.427204864438, 184.182455417095)" fill="#000000" stroke-opacity="0" stroke="#000000" stroke-width="0" stroke-linecap="square" stroke-linejoin="bevel" d="M4.6128 8.29754C16.2328 1.54754 30.0828 -1.34246 43.4128 0.587545C50.1828 1.60754 57.0428 4.57754 61.2628 10.1575C65.0928 15.1675 66.5628 21.5975 66.5828 27.8075C66.5628 45.8975 66.5828 63.9775 66.5628 82.0675C61.6128 82.0675 56.6528 82.0975 51.7028 82.0375C51.2428 79.6175 50.7828 77.2075 50.3628 74.7875C44.1928 80.5175 36.0228 84.0975 27.5528 84.0975C18.1928 84.4175 8.0728 80.6675 2.9928 72.4275C-0.557205 66.9275 -0.0472049 60.1275 0.132795 53.8875C0.552795 46.1075 6.3128 39.5675 13.2828 36.5975C24.0928 31.6175 36.2728 33.0375 47.8128 32.8175C48.2228 26.5175 48.1228 17.8575 40.9428 15.3875C30.6628 12.3475 19.7428 15.7175 10.3928 20.2075C8.4728 16.2375 6.3128 12.3675 4.6128 8.29754M23.3128 47.5275C18.6828 50.2175 18.4428 56.1075 18.8328 60.8475C18.7628 64.8475 21.7428 68.4875 25.5928 69.4375C33.5328 71.5075 42.1328 68.4175 47.7828 62.6575C47.8628 56.7175 47.8028 50.7675 47.8228 44.8175C39.6828 45.3275 30.7128 43.1875 23.3128 47.5275Z" sodipodi:nodetypes="ccccccccccccccccccccc"/>
  <path id="shape11" transform="translate(627.01, 186.246077975413)" fill="#000000" stroke-opacity="0" stroke="#000000" stroke-width="0" stroke-linecap="square" stroke-linejoin="bevel" d="M0 0.033922C6.51 -0.026078 13.02 0.013922 19.53 0.00392202C25.8 21.8439 31.97 43.7039 38.36 65.5039C43.98 43.6539 49.78 21.8539 55.43 0.013922C61.68 0.00392202 67.94 -0.00607798 74.2 0.013922C65.07 30.2439 55.89 60.4639 46.72 90.6739C44.49 98.0139 40.48 105.514 33.36 109.094C25.25 113.054 15.66 112.654 7.15 110.224C7.86 106.064 8.85 101.954 9.59 97.7939C15.38 98.4239 22.1 99.8539 27.08 95.9139C31.55 91.8739 31.82 85.3939 33.79 80.0439C31.1 80.0039 28.41 79.9939 25.73 80.0139C17.13 53.3639 8.6 26.6839 0 0.033922Z" sodipodi:nodetypes="ccccccccccccc"/>
 </g><g id="#444444ff" transform="matrix(0.0627844157528305 0 0 0.066891656574904 0.284491802488188 0.120852846107836)" fill="none">
  <path id="shape12" transform="translate(0.744957408312195, 3.56)" fill="#444444" stroke-opacity="0" stroke="#000000" stroke-width="0" stroke-linecap="square" stroke-linejoin="bevel" d="M0.00504259 34.28C18.995 22.84 37.945 11.31 57.015 0C57.055 87.57 56.915 175.14 57.085 262.71C48.445 268.08 39.655 273.2 30.995 278.51C20.655 284.68 10.395 290.99 0.0350426 297.11C-0.0349574 209.5 0.0250426 121.89 0.00504259 34.28Z" sodipodi:nodetypes="cccccc"/>
 </g><g id="#000000ff" transform="matrix(0.0627844157528305 0 0 0.066891656574904 0.284491802488188 0.120852846107836)" fill="none">
  <path id="shape13" transform="translate(57.7434389447075, 3.46897648748117)" fill="#000000" stroke-opacity="0" stroke="#000000" stroke-width="0" stroke-linecap="square" stroke-linejoin="bevel" d="M0.0165611 0.0910235C83.0866 -0.0489765 166.167 0.0710235 249.247 0.0310235C259.507 -0.588976 269.137 8.17102 269.177 18.501C269.367 32.091 269.197 45.691 269.257 59.291C269.237 127.111 269.297 194.921 269.227 262.741C179.517 262.841 89.7966 262.721 0.0865611 262.801C-0.0834389 175.231 0.0565611 87.661 0.0165611 0.0910235M59.2866 58.761C59.2166 107.351 59.2766 155.941 59.2566 204.531C69.7566 204.531 80.2566 204.531 90.7566 204.531C90.7666 172.351 90.7566 140.171 90.7566 107.991C99.6166 140.071 107.707 172.381 116.317 204.531C127.727 204.551 139.147 204.491 150.557 204.561C158.777 173.781 166.667 142.901 174.967 112.131C175.067 142.931 174.967 173.731 175.007 204.521C186.587 204.541 198.167 204.531 209.747 204.531C209.807 155.981 209.667 107.431 209.817 58.881C194.937 58.651 180.047 58.841 165.167 58.781C155.047 97.511 144.817 136.211 134.537 174.891C124.627 136.231 115.107 97.471 105.317 58.781C89.9666 58.761 74.6266 58.801 59.2866 58.761Z" sodipodi:nodetypes="ccccccccccccccccccccc"/>
 </g><g id="#ffffffff" transform="matrix(0.0627844157528305 0 0 0.066891656574904 0.284491802488188 0.120852846107836)" fill="none">
  <path id="shape14" transform="translate(116.994957408312, 62.23)" fill="#ffffff" stroke-opacity="0" stroke="#000000" stroke-width="0" stroke-linecap="square" stroke-linejoin="bevel" d="M0.0350426 0C15.375 0.04 30.715 0 46.065 0.02C55.855 38.71 65.375 77.47 75.285 116.13C85.565 77.45 95.795 38.75 105.915 0.02C120.795 0.08 135.685 -0.11 150.565 0.12C150.415 48.67 150.555 97.22 150.495 145.77C138.915 145.77 127.335 145.78 115.755 145.76C115.715 114.97 115.815 84.17 115.715 53.37C107.415 84.14 99.525 115.02 91.305 145.8C79.895 145.73 68.475 145.79 57.065 145.77C48.455 113.62 40.365 81.31 31.505 49.23C31.505 81.41 31.515 113.59 31.505 145.77C21.005 145.77 10.505 145.77 0.00504259 145.77C0.0250426 97.18 -0.0349574 48.59 0.0350426 0Z" sodipodi:nodetypes="cccccccccccccc"/>
 </g><g id="#151515ff" transform="matrix(0.0627844157528305 0 0 0.066891656574904 0.284491802488188 0.120852846107836)" fill="none">
  <path id="shape15" transform="translate(31.7383563845904, 62.7525)" fill="#151515" stroke-opacity="0" stroke="#000000" stroke-width="0" stroke-linecap="square" stroke-linejoin="bevel" d="M295.262 0.0075C303.842 -0.0025 312.422 -0.0025 321.012 0.0075C320.962 87.4175 321.122 174.838 320.932 262.248L19.6616 262.248C16.0816 261.748 12.3716 261.197 9.24164 259.257C3.65164 256.007 -0.0383564 249.697 0.0116436 243.207C-0.0283564 235.248 0.0516436 227.277 0.00164362 219.317C8.66164 214.007 17.4516 208.887 26.0916 203.517C115.802 203.438 205.522 203.558 295.232 203.457C295.302 135.637 295.242 67.8275 295.262 0.0075Z" sodipodi:nodetypes="cccccccccc"/>
 </g>
</svg>