<svg xmlns="http://www.w3.org/2000/svg" xmlns:xlink="http://www.w3.org/1999/xlink" viewBox="0,0,256,256" width="96px" height="96px" fill-rule="nonzero"><g fill="#000000" fill-rule="nonzero" stroke="none" stroke-width="1" stroke-linecap="butt" stroke-linejoin="miter" stroke-miterlimit="10" stroke-dasharray="" stroke-dashoffset="0" font-family="none" font-weight="none" font-size="none" text-anchor="none" style="mix-blend-mode: normal"><g transform="scale(5.33333,5.33333)"><path d="M28,14c1.657,0 3,0 3,-1c0,-3 -2,-5 -4,-5c-1.657,0 -3,1 -3,3c0,1.657 2.343,3 4,3z"></path><path d="M42.667,39.377l-2.747,-5.147c-0.058,-0.097 -5.448,-9.767 -15.92,-9.23c1.679,-1.831 2.791,-2.518 3.99,-3.7c0.569,0.322 1.106,0.564 1.53,0.62c0.43,0.06 0.84,0.09 1.23,0.09c0.91,0 1.71,-0.16 2.46,-0.43c1.88,-0.68 3.13,-1.72 3.74,-3.11c0.33,-0.74 0.27,-1.57 -0.17,-2.27c-0.44,-0.71 -1.19,-1.15 -2.02,-1.19c-1.51,-0.09 -2.51,0.75 -3.94,1.66c-0.33,0.21 -0.76,0.22 -1.09,0c-1.75,-1.19 -5.3,-2.57 -10.73,-1.67c-4.17,0.69 -7.62,4.7 -9.15,6.77c-0.53,0.71 0.07,1.74 0.95,1.58c0.77,-0.14 1.73,-0.49 2.86,-0.89c0.8,-0.28 1.34,-1.04 1.34,-1.88v-0.58c0,-1 1,-2.19 3,-3c1.8,-0.54 4,0 6.73,2c0.44,0.346 1,0.782 1.593,1.211c-1.34,1.331 -3.074,3.108 -4.882,5.113c-7.182,1.108 -16.441,7.185 -16.441,11.676c0,2 1.593,2.184 3,2c5.891,0 10.382,-6.969 10.613,-7.277c0.222,-0.289 0.451,-0.576 0.679,-0.864c8.447,-1.662 14.099,1.147 15.988,2.091c1.14,0.57 1.04,0.96 0.86,1.68c-0.07,0.27 -0.14,0.56 -0.14,0.87c0,1.897 3.682,4.219 5.369,5.161c0.371,0.207 0.831,0.139 1.132,-0.162c0.296,-0.296 0.364,-0.752 0.166,-1.122zM36,17c-1,2 -4,1 -4,1c0,0 2,-2 4,-1zM8.989,36.999c-0.867,0.227 -1.534,-0.779 -1.049,-1.533c1.928,-2.997 7.35,-4.53 9.123,-4.92c-0.044,0.059 -4.482,5.511 -8.074,6.453z"></path></g></g></svg>